{"title":"The.Notorious.Bettie.Page.2005.HDTV.720p.x264-HDL","uid":6718762,"size":4698804922,"categoryP":"video","categoryS":"hd___movies","magnet":"?xt=urn:btih:40697d71528e2b9d697bbc2197daa5c2f6f9db49&amp;dn=The.Notorious.Bettie.Page.2005.HDTV.720p.x264-HDL&amp;tr=udp%3A%2F%2Ftracker.openbittorrent.com%3A80&amp;tr=udp%3A%2F%2Fopen.demonii.com%3A1337&amp;tr=udp%3A%2F%2Ftracker.coppersurfer.tk%3A6969&amp;tr=udp%3A%2F%2Fexodus.desync.com%3A6969","seeders":4,"leechers":1,"uploader":"mfccorrea","files":4,"time":1317695267,"description":"Bettie Page, a fetish goddess in black leather and bangs, was the perv pinup of choice back in the Eisenhower era. Any old sleaze could turn Bettie's life into a kinky S&amp;M wallow, a cinematic stroke book. Not that there's anything wrong with that. It's just that director Mary Harron, who co-wrote the scrappy script with Guinevere Turner, doesn't do the expected. She's too sly for that, too subversively funny. Her version of American Psycho in 2000, following her acclaimed 1996 debut with I Shot Andy Warhol, dodged the gore to take an ax to male vanity and greed. Her timeless theme here is the gap between real women and male sexual fantasies. Bettie, a sweet-natured girl from Nashville armed with her belief in God and the natural glory of her own body, giggled at the men who liked to see her model and pose with whips and chains. The dirt never touched her. She wouldn't let it.\n\n   General\n      Complete name : The.Notorious.Bettie.Page.2005.HDTV.720p.x264-HDL.mkv\n      Format : Matroska\n      File size : 4.38 GiB\n      Duration : 1h 30mn\n      Overall bit rate : 6 907 Kbps\n      Encoded date : UTC 2007-06-26 19:15:24\n      Writing application : mkvmerge v2.0.2 ('You're My Flame') built on Feb 21 2007 23:40:55\n      Writing library : libebml v0.7.7 + libmatroska v0.8.1\n   Video #1\n      ID : 1\n      Format : AVC\n      Format/Info : Advanced Video Codec\n      Format profile : &lt;a class=&quot;__cf_email__&quot; href=&quot;/cdn-cgi/l/email-protection&quot; data-cfemail=&quot;8dc5e4eae5cdc1b8a3bc&quot;&gt;[email&amp;#160;protected]&lt;/a&gt;&lt;script data-cfhash='f9e31' type=&quot;text/javascript&quot;&gt;\n/* &lt;![CDATA[ */!function(){try{var t=&quot;currentScript&quot;in document?document.currentScript:function(){for(var t=document.getElementsByTagName(&quot;script&quot;),e=t.length;e--;)if(t[e].getAttribute(&quot;data-cfhash&quot;))return t[e]}();if(t&amp;&amp;t.previousSibling){var e,r,n,i,c=t.previousSibling,a=c.getAttribute(&quot;data-cfemail&quot;);if(a){for(e=&quot;&quot;,r=parseInt(a.substr(0,2),16),n=2;a.length-n;n+=2)i=parseInt(a.substr(n,2),16)^r,e+=String.fromCharCode(i);e=document.createTextNode(e),c.parentNode.replaceChild(e,c)}t.parentNode.removeChild(t);}}catch(u){}}()/* ]]&gt; */&lt;/script&gt;\n      Format settings, CABAC : Yes\n      Format settings, ReFrames : 11 frames\n      Muxing mode : Container profile=&lt;a class=&quot;__cf_email__&quot; href=&quot;/cdn-cgi/l/email-protection&quot; data-cfemail=&quot;1d48737673726a735d28332c&quot;&gt;[email&amp;#160;protected]&lt;/a&gt;&lt;script data-cfhash='f9e31' type=&quot;text/javascript&quot;&gt;\n/* &lt;![CDATA[ */!function(){try{var t=&quot;currentScript&quot;in document?document.currentScript:function(){for(var t=document.getElementsByTagName(&quot;script&quot;),e=t.length;e--;)if(t[e].getAttribute(&quot;data-cfhash&quot;))return t[e]}();if(t&amp;&amp;t.previousSibling){var e,r,n,i,c=t.previousSibling,a=c.getAttribute(&quot;data-cfemail&quot;);if(a){for(e=&quot;&quot;,r=parseInt(a.substr(0,2),16),n=2;a.length-n;n+=2)i=parseInt(a.substr(n,2),16)^r,e+=String.fromCharCode(i);e=document.createTextNode(e),c.parentNode.replaceChild(e,c)}t.parentNode.removeChild(t);}}catch(u){}}()/* ]]&gt; */&lt;/script&gt;\n      Codec ID : V_MPEG4/ISO/AVC\n      Duration : 1h 30mn\n      Bit rate : 6 386 Kbps\n      Nominal bit rate : 6 520 Kbps\n      Width : 1 280 pixels\n      Height : 720 pixels\n      Display aspect ratio : 16:9\n      Frame rate : 23.976 fps\n      Resolution : 24 bits\n      Colorimetry : 4:2:0\n      Scan type : Progressive\n      Bits/(Pixel*Frame) : 0.289\n      Stream size : 4.04 GiB (92%)\n      Writing library : x264 core 54 svn-612M     \n   Audio #2\n      ID : 2\n      Format : AC-3\n      Format/Info : Audio Coding 3\n      Codec ID : A_AC3\n      Duration : 1h 30mn\n      Bit rate mode : Constant\n      Bit rate : 384 Kbps\n      Channel(s) : 6 channels\n      Channel positions : Front: L C R, Surround: L R, LFE\n      Sampling rate : 48.0 KHz\n      Stream size : 249 MiB (6%)\n &lt;a href=&quot;\nhttp://www.imdb.com/title/tt0404802/&quot; rel=&quot;nofollow&quot; target=&quot;_NEW&quot;&gt;\nhttp://www.imdb.com/title/tt0404802/&lt;/a&gt;\n\nEnglish audio; English, Spanish and Portuguese subtitles","torrent":{"xt":"urn:btih:40697d71528e2b9d697bbc2197daa5c2f6f9db49","amp;dn":"The.Notorious.Bettie.Page.2005.HDTV.720p.x264-HDL","amp;tr":["udp%3A%2F%2Ftracker.openbittorrent.com%3A80","udp%3A%2F%2Fopen.demonii.com%3A1337","udp%3A%2F%2Ftracker.coppersurfer.tk%3A6969","udp%3A%2F%2Fexodus.desync.com%3A6969"],"infoHash":"40697d71528e2b9d697bbc2197daa5c2f6f9db49","infoHashBuffer":{"type":"Buffer","data":[64,105,125,113,82,142,43,157,105,123,188,33,151,218,165,194,246,249,219,73]},"announce":[],"urlList":[]}}